# xmcd
#
# Track frame offsets:
#	150
#	20812
#	39890
#	68430
#	100545
#	124867
#	151422
#	169625
#	186545
#	203902
#
# Disc length: 3116
#
# Revision: 3
# Processed by: cddbd v1.5.1PL2 Copyright (c) Steve Scherf et al.
# Submitted via: CDValet v3.31 - Copyright (c) 1997 Greg Leichner
# Normalized: r1:DSETVAR1
#
DISCID=7d0c2a0a
DTITLE=Various Artist - Norman Connors and Friends (Best Of)
DYEAR=1978
DGENRE=Jazz
TTITLE0=Michael Henderson - You Are My Starship
TTITLE1=Michael Henderson and Phyllis Hyman - We Both Need Each Other
TTITLE2=Phyllis Hyman - Betcha By Golly Wow
TTITLE3=Jean Carn - Dindi
TTITLE4=Norman Connors - Romantic Journey
TTITLE5=Phillip Mitchell - Once I've Been There
TTITLE6=Eleanor Mills - This Is Your Life
TTITLE7=Eleanor Mills - Wouldn't You Like To See
TTITLE8=Jean Carn and Michael Henderson - Valentine Love
TTITLE9=Dee Dee Bridgewater - Love From the sun
EXTD=
EXTT0=
EXTT1=
EXTT2=
EXTT3=
EXTT4=
EXTT5=
EXTT6=
EXTT7=
EXTT8=
EXTT9=
PLAYORDER=
